<mxfile host="app.diagrams.net" modified="2024-04-15T05:55:21.915Z" agent="Mozilla/5.0 (Windows NT 10.0; Win64; x64) AppleWebKit/537.36 (KHTML, like Gecko) Chrome/123.0.0.0 Safari/537.36" etag="5sI82noN1E2uKLCzYS9U" version="24.2.5" type="github">
  <diagram id="C5RBs43oDa-KdzZeNtuy" name="Page-1">
    <mxGraphModel dx="2227" dy="1964" grid="1" gridSize="10" guides="1" tooltips="1" connect="1" arrows="1" fold="1" page="1" pageScale="1" pageWidth="827" pageHeight="1169" math="0" shadow="0">
      <root>
        <mxCell id="WIyWlLk6GJQsqaUBKTNV-0" />
        <mxCell id="WIyWlLk6GJQsqaUBKTNV-1" parent="WIyWlLk6GJQsqaUBKTNV-0" />
        <mxCell id="eSpi-IzSvP3MUUH62fqP-12" style="edgeStyle=orthogonalEdgeStyle;rounded=0;orthogonalLoop=1;jettySize=auto;html=1;exitX=1;exitY=0.5;exitDx=0;exitDy=0;entryX=0;entryY=0.5;entryDx=0;entryDy=0;" edge="1" parent="WIyWlLk6GJQsqaUBKTNV-1" source="WIyWlLk6GJQsqaUBKTNV-6" target="eSpi-IzSvP3MUUH62fqP-8">
          <mxGeometry relative="1" as="geometry" />
        </mxCell>
        <mxCell id="eSpi-IzSvP3MUUH62fqP-30" value="details like address filll profile details" style="edgeLabel;html=1;align=center;verticalAlign=middle;resizable=0;points=[];" vertex="1" connectable="0" parent="eSpi-IzSvP3MUUH62fqP-12">
          <mxGeometry x="-0.6507" y="1" relative="1" as="geometry">
            <mxPoint as="offset" />
          </mxGeometry>
        </mxCell>
        <mxCell id="WIyWlLk6GJQsqaUBKTNV-6" value="logged in using mobile OTP" style="rhombus;whiteSpace=wrap;html=1;shadow=0;fontFamily=Helvetica;fontSize=12;align=center;strokeWidth=1;spacing=6;spacingTop=-4;" parent="WIyWlLk6GJQsqaUBKTNV-1" vertex="1">
          <mxGeometry x="-40" y="150" width="100" height="80" as="geometry" />
        </mxCell>
        <mxCell id="eSpi-IzSvP3MUUH62fqP-15" style="edgeStyle=orthogonalEdgeStyle;rounded=0;orthogonalLoop=1;jettySize=auto;html=1;exitX=1;exitY=0.5;exitDx=0;exitDy=0;" edge="1" parent="WIyWlLk6GJQsqaUBKTNV-1" source="eSpi-IzSvP3MUUH62fqP-8" target="eSpi-IzSvP3MUUH62fqP-13">
          <mxGeometry relative="1" as="geometry" />
        </mxCell>
        <mxCell id="eSpi-IzSvP3MUUH62fqP-8" value="choosing service" style="rhombus;whiteSpace=wrap;html=1;" vertex="1" parent="WIyWlLk6GJQsqaUBKTNV-1">
          <mxGeometry x="400" y="40" width="80" height="80" as="geometry" />
        </mxCell>
        <mxCell id="eSpi-IzSvP3MUUH62fqP-17" style="edgeStyle=orthogonalEdgeStyle;rounded=0;orthogonalLoop=1;jettySize=auto;html=1;exitX=1;exitY=0.5;exitDx=0;exitDy=0;" edge="1" parent="WIyWlLk6GJQsqaUBKTNV-1" source="eSpi-IzSvP3MUUH62fqP-13">
          <mxGeometry relative="1" as="geometry">
            <mxPoint x="610" y="220" as="targetPoint" />
            <Array as="points">
              <mxPoint x="680" y="80" />
              <mxPoint x="680" y="121" />
            </Array>
          </mxGeometry>
        </mxCell>
        <mxCell id="eSpi-IzSvP3MUUH62fqP-18" value="emergency&lt;div&gt;&lt;br&gt;&lt;/div&gt;" style="edgeLabel;html=1;align=center;verticalAlign=middle;resizable=0;points=[];" vertex="1" connectable="0" parent="eSpi-IzSvP3MUUH62fqP-17">
          <mxGeometry x="-0.2997" y="3" relative="1" as="geometry">
            <mxPoint as="offset" />
          </mxGeometry>
        </mxCell>
        <mxCell id="eSpi-IzSvP3MUUH62fqP-19" style="edgeStyle=orthogonalEdgeStyle;rounded=0;orthogonalLoop=1;jettySize=auto;html=1;exitX=0.5;exitY=1;exitDx=0;exitDy=0;" edge="1" parent="WIyWlLk6GJQsqaUBKTNV-1" source="eSpi-IzSvP3MUUH62fqP-13">
          <mxGeometry relative="1" as="geometry">
            <mxPoint x="330" y="190" as="targetPoint" />
          </mxGeometry>
        </mxCell>
        <mxCell id="eSpi-IzSvP3MUUH62fqP-20" value="regular&lt;div&gt;&lt;br&gt;&lt;/div&gt;" style="edgeLabel;html=1;align=center;verticalAlign=middle;resizable=0;points=[];" vertex="1" connectable="0" parent="eSpi-IzSvP3MUUH62fqP-19">
          <mxGeometry x="0.0649" y="-1" relative="1" as="geometry">
            <mxPoint as="offset" />
          </mxGeometry>
        </mxCell>
        <mxCell id="eSpi-IzSvP3MUUH62fqP-33" style="edgeStyle=orthogonalEdgeStyle;rounded=0;orthogonalLoop=1;jettySize=auto;html=1;exitX=1;exitY=0;exitDx=0;exitDy=0;entryX=0.5;entryY=1;entryDx=0;entryDy=0;" edge="1" parent="WIyWlLk6GJQsqaUBKTNV-1" source="eSpi-IzSvP3MUUH62fqP-13" target="WIyWlLk6GJQsqaUBKTNV-6">
          <mxGeometry relative="1" as="geometry" />
        </mxCell>
        <mxCell id="eSpi-IzSvP3MUUH62fqP-13" value="choose plan" style="rhombus;whiteSpace=wrap;html=1;" vertex="1" parent="WIyWlLk6GJQsqaUBKTNV-1">
          <mxGeometry x="530" y="40" width="80" height="80" as="geometry" />
        </mxCell>
        <mxCell id="eSpi-IzSvP3MUUH62fqP-22" style="edgeStyle=orthogonalEdgeStyle;rounded=0;orthogonalLoop=1;jettySize=auto;html=1;exitX=0.5;exitY=1;exitDx=0;exitDy=0;" edge="1" parent="WIyWlLk6GJQsqaUBKTNV-1" source="eSpi-IzSvP3MUUH62fqP-21">
          <mxGeometry relative="1" as="geometry">
            <mxPoint x="70" y="320" as="targetPoint" />
          </mxGeometry>
        </mxCell>
        <mxCell id="eSpi-IzSvP3MUUH62fqP-21" value="search provider based on nearest location and qualific&lt;span style=&quot;background-color: initial;&quot;&gt;ation&lt;/span&gt;&lt;div&gt;&lt;div&gt;&lt;br&gt;&lt;/div&gt;&lt;/div&gt;" style="shape=parallelogram;perimeter=parallelogramPerimeter;whiteSpace=wrap;html=1;fixedSize=1;" vertex="1" parent="WIyWlLk6GJQsqaUBKTNV-1">
          <mxGeometry x="310" y="200" width="120" height="60" as="geometry" />
        </mxCell>
        <mxCell id="eSpi-IzSvP3MUUH62fqP-64" style="edgeStyle=orthogonalEdgeStyle;rounded=0;orthogonalLoop=1;jettySize=auto;html=1;exitX=0.5;exitY=1;exitDx=0;exitDy=0;entryX=0.5;entryY=0;entryDx=0;entryDy=0;" edge="1" parent="WIyWlLk6GJQsqaUBKTNV-1" source="eSpi-IzSvP3MUUH62fqP-23" target="eSpi-IzSvP3MUUH62fqP-62">
          <mxGeometry relative="1" as="geometry" />
        </mxCell>
        <mxCell id="eSpi-IzSvP3MUUH62fqP-65" style="edgeStyle=orthogonalEdgeStyle;rounded=0;orthogonalLoop=1;jettySize=auto;html=1;exitX=1;exitY=0.5;exitDx=0;exitDy=0;" edge="1" parent="WIyWlLk6GJQsqaUBKTNV-1" source="eSpi-IzSvP3MUUH62fqP-23" target="eSpi-IzSvP3MUUH62fqP-63">
          <mxGeometry relative="1" as="geometry" />
        </mxCell>
        <mxCell id="eSpi-IzSvP3MUUH62fqP-67" style="edgeStyle=orthogonalEdgeStyle;rounded=0;orthogonalLoop=1;jettySize=auto;html=1;exitX=1;exitY=0.5;exitDx=0;exitDy=0;entryX=0.5;entryY=0;entryDx=0;entryDy=0;" edge="1" parent="WIyWlLk6GJQsqaUBKTNV-1" source="eSpi-IzSvP3MUUH62fqP-23" target="eSpi-IzSvP3MUUH62fqP-28">
          <mxGeometry relative="1" as="geometry" />
        </mxCell>
        <mxCell id="eSpi-IzSvP3MUUH62fqP-23" value="keep track of service provider service" style="shape=parallelogram;perimeter=parallelogramPerimeter;whiteSpace=wrap;html=1;fixedSize=1;" vertex="1" parent="WIyWlLk6GJQsqaUBKTNV-1">
          <mxGeometry y="330" width="260" height="50" as="geometry" />
        </mxCell>
        <mxCell id="eSpi-IzSvP3MUUH62fqP-24" value="enter details require &amp;amp; all nearest get notify service &amp;amp;&amp;nbsp; it selected by user ( service taker)&amp;nbsp;" style="shape=parallelogram;perimeter=parallelogramPerimeter;whiteSpace=wrap;html=1;fixedSize=1;" vertex="1" parent="WIyWlLk6GJQsqaUBKTNV-1">
          <mxGeometry x="510" y="220" width="240" height="60" as="geometry" />
        </mxCell>
        <mxCell id="eSpi-IzSvP3MUUH62fqP-26" style="edgeStyle=orthogonalEdgeStyle;rounded=0;orthogonalLoop=1;jettySize=auto;html=1;exitX=0.5;exitY=1;exitDx=0;exitDy=0;entryX=0.725;entryY=0.04;entryDx=0;entryDy=0;entryPerimeter=0;" edge="1" parent="WIyWlLk6GJQsqaUBKTNV-1" source="eSpi-IzSvP3MUUH62fqP-24" target="eSpi-IzSvP3MUUH62fqP-23">
          <mxGeometry relative="1" as="geometry" />
        </mxCell>
        <mxCell id="eSpi-IzSvP3MUUH62fqP-35" style="edgeStyle=orthogonalEdgeStyle;rounded=0;orthogonalLoop=1;jettySize=auto;html=1;exitX=0.5;exitY=1;exitDx=0;exitDy=0;" edge="1" parent="WIyWlLk6GJQsqaUBKTNV-1" source="eSpi-IzSvP3MUUH62fqP-28" target="eSpi-IzSvP3MUUH62fqP-36">
          <mxGeometry relative="1" as="geometry">
            <mxPoint x="400" y="490" as="targetPoint" />
          </mxGeometry>
        </mxCell>
        <mxCell id="eSpi-IzSvP3MUUH62fqP-28" value="payment" style="shape=parallelogram;perimeter=parallelogramPerimeter;whiteSpace=wrap;html=1;fixedSize=1;" vertex="1" parent="WIyWlLk6GJQsqaUBKTNV-1">
          <mxGeometry x="414" y="390" width="120" height="50" as="geometry" />
        </mxCell>
        <mxCell id="eSpi-IzSvP3MUUH62fqP-32" value="verified" style="text;html=1;align=center;verticalAlign=middle;resizable=0;points=[];autosize=1;strokeColor=none;fillColor=none;" vertex="1" parent="WIyWlLk6GJQsqaUBKTNV-1">
          <mxGeometry x="610" y="48" width="60" height="30" as="geometry" />
        </mxCell>
        <mxCell id="eSpi-IzSvP3MUUH62fqP-34" value="not verified&lt;div&gt;&lt;br&gt;&lt;/div&gt;" style="text;html=1;align=center;verticalAlign=middle;resizable=0;points=[];autosize=1;strokeColor=none;fillColor=none;" vertex="1" parent="WIyWlLk6GJQsqaUBKTNV-1">
          <mxGeometry x="60" y="223" width="80" height="40" as="geometry" />
        </mxCell>
        <mxCell id="eSpi-IzSvP3MUUH62fqP-36" value="rating" style="shape=parallelogram;perimeter=parallelogramPerimeter;whiteSpace=wrap;html=1;fixedSize=1;" vertex="1" parent="WIyWlLk6GJQsqaUBKTNV-1">
          <mxGeometry x="414" y="490" width="120" height="60" as="geometry" />
        </mxCell>
        <mxCell id="eSpi-IzSvP3MUUH62fqP-41" value="Details of Creating profile like linkldn" style="rounded=1;whiteSpace=wrap;html=1;" vertex="1" parent="WIyWlLk6GJQsqaUBKTNV-1">
          <mxGeometry x="530" y="730" width="120" height="60" as="geometry" />
        </mxCell>
        <mxCell id="eSpi-IzSvP3MUUH62fqP-48" style="edgeStyle=orthogonalEdgeStyle;rounded=0;orthogonalLoop=1;jettySize=auto;html=1;exitX=0.5;exitY=1;exitDx=0;exitDy=0;" edge="1" parent="WIyWlLk6GJQsqaUBKTNV-1" source="eSpi-IzSvP3MUUH62fqP-43">
          <mxGeometry relative="1" as="geometry">
            <mxPoint x="70" y="770" as="targetPoint" />
          </mxGeometry>
        </mxCell>
        <mxCell id="eSpi-IzSvP3MUUH62fqP-43" value="Details&amp;nbsp;" style="rhombus;whiteSpace=wrap;html=1;" vertex="1" parent="WIyWlLk6GJQsqaUBKTNV-1">
          <mxGeometry x="374" y="640" width="80" height="80" as="geometry" />
        </mxCell>
        <mxCell id="eSpi-IzSvP3MUUH62fqP-44" style="edgeStyle=orthogonalEdgeStyle;rounded=0;orthogonalLoop=1;jettySize=auto;html=1;entryX=0.608;entryY=0;entryDx=0;entryDy=0;entryPerimeter=0;" edge="1" parent="WIyWlLk6GJQsqaUBKTNV-1" source="eSpi-IzSvP3MUUH62fqP-43" target="eSpi-IzSvP3MUUH62fqP-41">
          <mxGeometry relative="1" as="geometry" />
        </mxCell>
        <mxCell id="eSpi-IzSvP3MUUH62fqP-45" value="Not&amp;nbsp;" style="text;html=1;align=center;verticalAlign=middle;resizable=0;points=[];autosize=1;strokeColor=none;fillColor=none;" vertex="1" parent="WIyWlLk6GJQsqaUBKTNV-1">
          <mxGeometry x="515" y="658" width="50" height="30" as="geometry" />
        </mxCell>
        <mxCell id="eSpi-IzSvP3MUUH62fqP-49" value="Already&amp;nbsp;" style="text;html=1;align=center;verticalAlign=middle;resizable=0;points=[];autosize=1;strokeColor=none;fillColor=none;" vertex="1" parent="WIyWlLk6GJQsqaUBKTNV-1">
          <mxGeometry x="195" y="728" width="70" height="30" as="geometry" />
        </mxCell>
        <mxCell id="eSpi-IzSvP3MUUH62fqP-54" style="edgeStyle=orthogonalEdgeStyle;rounded=0;orthogonalLoop=1;jettySize=auto;html=1;exitX=0.5;exitY=1;exitDx=0;exitDy=0;" edge="1" parent="WIyWlLk6GJQsqaUBKTNV-1" source="eSpi-IzSvP3MUUH62fqP-51">
          <mxGeometry relative="1" as="geometry">
            <mxPoint x="170" y="860" as="targetPoint" />
          </mxGeometry>
        </mxCell>
        <mxCell id="eSpi-IzSvP3MUUH62fqP-55" value="Accept&amp;nbsp;" style="edgeLabel;html=1;align=center;verticalAlign=middle;resizable=0;points=[];" vertex="1" connectable="0" parent="eSpi-IzSvP3MUUH62fqP-54">
          <mxGeometry x="-0.1577" y="4" relative="1" as="geometry">
            <mxPoint as="offset" />
          </mxGeometry>
        </mxCell>
        <mxCell id="eSpi-IzSvP3MUUH62fqP-57" style="edgeStyle=orthogonalEdgeStyle;rounded=0;orthogonalLoop=1;jettySize=auto;html=1;exitX=1;exitY=0.5;exitDx=0;exitDy=0;" edge="1" parent="WIyWlLk6GJQsqaUBKTNV-1" source="eSpi-IzSvP3MUUH62fqP-51" target="eSpi-IzSvP3MUUH62fqP-58">
          <mxGeometry relative="1" as="geometry">
            <mxPoint x="340" y="840" as="targetPoint" />
          </mxGeometry>
        </mxCell>
        <mxCell id="eSpi-IzSvP3MUUH62fqP-51" value="Receive Request&amp;nbsp;" style="shape=parallelogram;perimeter=parallelogramPerimeter;whiteSpace=wrap;html=1;fixedSize=1;" vertex="1" parent="WIyWlLk6GJQsqaUBKTNV-1">
          <mxGeometry x="20" y="770" width="120" height="20" as="geometry" />
        </mxCell>
        <mxCell id="eSpi-IzSvP3MUUH62fqP-56" value="Live tracking &amp;amp; map with service taker&amp;nbsp;" style="shape=parallelogram;perimeter=parallelogramPerimeter;whiteSpace=wrap;html=1;fixedSize=1;" vertex="1" parent="WIyWlLk6GJQsqaUBKTNV-1">
          <mxGeometry x="110" y="860" width="120" height="60" as="geometry" />
        </mxCell>
        <mxCell id="eSpi-IzSvP3MUUH62fqP-69" value="" style="edgeStyle=orthogonalEdgeStyle;rounded=0;orthogonalLoop=1;jettySize=auto;html=1;" edge="1" parent="WIyWlLk6GJQsqaUBKTNV-1" source="eSpi-IzSvP3MUUH62fqP-58" target="eSpi-IzSvP3MUUH62fqP-68">
          <mxGeometry relative="1" as="geometry" />
        </mxCell>
        <mxCell id="eSpi-IzSvP3MUUH62fqP-58" value="Chatbot to talk with client" style="shape=parallelogram;perimeter=parallelogramPerimeter;whiteSpace=wrap;html=1;fixedSize=1;" vertex="1" parent="WIyWlLk6GJQsqaUBKTNV-1">
          <mxGeometry x="260" y="850" width="120" height="60" as="geometry" />
        </mxCell>
        <mxCell id="eSpi-IzSvP3MUUH62fqP-59" value="DID call feature implementation" style="shape=parallelogram;perimeter=parallelogramPerimeter;whiteSpace=wrap;html=1;fixedSize=1;" vertex="1" parent="WIyWlLk6GJQsqaUBKTNV-1">
          <mxGeometry x="400" y="850" width="120" height="60" as="geometry" />
        </mxCell>
        <mxCell id="eSpi-IzSvP3MUUH62fqP-60" style="edgeStyle=orthogonalEdgeStyle;rounded=0;orthogonalLoop=1;jettySize=auto;html=1;exitX=1;exitY=0.5;exitDx=0;exitDy=0;entryX=0.572;entryY=-0.04;entryDx=0;entryDy=0;entryPerimeter=0;" edge="1" parent="WIyWlLk6GJQsqaUBKTNV-1" source="eSpi-IzSvP3MUUH62fqP-51" target="eSpi-IzSvP3MUUH62fqP-59">
          <mxGeometry relative="1" as="geometry" />
        </mxCell>
        <mxCell id="eSpi-IzSvP3MUUH62fqP-62" value="chat bott" style="shape=parallelogram;perimeter=parallelogramPerimeter;whiteSpace=wrap;html=1;fixedSize=1;" vertex="1" parent="WIyWlLk6GJQsqaUBKTNV-1">
          <mxGeometry x="80" y="460" width="120" height="60" as="geometry" />
        </mxCell>
        <mxCell id="eSpi-IzSvP3MUUH62fqP-63" value="did call number" style="shape=parallelogram;perimeter=parallelogramPerimeter;whiteSpace=wrap;html=1;fixedSize=1;" vertex="1" parent="WIyWlLk6GJQsqaUBKTNV-1">
          <mxGeometry x="240" y="460" width="120" height="60" as="geometry" />
        </mxCell>
        <mxCell id="eSpi-IzSvP3MUUH62fqP-70" style="edgeStyle=orthogonalEdgeStyle;rounded=0;orthogonalLoop=1;jettySize=auto;html=1;exitX=0.5;exitY=1;exitDx=0;exitDy=0;" edge="1" parent="WIyWlLk6GJQsqaUBKTNV-1" source="eSpi-IzSvP3MUUH62fqP-68">
          <mxGeometry relative="1" as="geometry">
            <mxPoint x="250" y="1060" as="targetPoint" />
          </mxGeometry>
        </mxCell>
        <mxCell id="eSpi-IzSvP3MUUH62fqP-68" value="Require Details form" style="shape=parallelogram;perimeter=parallelogramPerimeter;whiteSpace=wrap;html=1;fixedSize=1;" vertex="1" parent="WIyWlLk6GJQsqaUBKTNV-1">
          <mxGeometry x="334" y="950" width="120" height="60" as="geometry" />
        </mxCell>
        <mxCell id="eSpi-IzSvP3MUUH62fqP-71" value="Receive Payment &amp;amp; Rating" style="shape=parallelogram;perimeter=parallelogramPerimeter;whiteSpace=wrap;html=1;fixedSize=1;" vertex="1" parent="WIyWlLk6GJQsqaUBKTNV-1">
          <mxGeometry x="170" y="1070" width="120" height="60" as="geometry" />
        </mxCell>
        <mxCell id="eSpi-IzSvP3MUUH62fqP-73" value="Admin" style="ellipse;whiteSpace=wrap;html=1;" vertex="1" parent="WIyWlLk6GJQsqaUBKTNV-1">
          <mxGeometry x="-533" y="48" width="120" height="80" as="geometry" />
        </mxCell>
        <mxCell id="eSpi-IzSvP3MUUH62fqP-75" style="edgeStyle=orthogonalEdgeStyle;rounded=0;orthogonalLoop=1;jettySize=auto;html=1;exitX=1;exitY=0.5;exitDx=0;exitDy=0;entryX=0.5;entryY=0;entryDx=0;entryDy=0;" edge="1" parent="WIyWlLk6GJQsqaUBKTNV-1" source="eSpi-IzSvP3MUUH62fqP-74" target="eSpi-IzSvP3MUUH62fqP-43">
          <mxGeometry relative="1" as="geometry" />
        </mxCell>
        <mxCell id="eSpi-IzSvP3MUUH62fqP-74" value="Service Provider&lt;br&gt;(Engineers)" style="ellipse;whiteSpace=wrap;html=1;" vertex="1" parent="WIyWlLk6GJQsqaUBKTNV-1">
          <mxGeometry x="40" y="608" width="120" height="80" as="geometry" />
        </mxCell>
        <mxCell id="eSpi-IzSvP3MUUH62fqP-76" value="mobile OTP" style="text;html=1;align=center;verticalAlign=middle;resizable=0;points=[];autosize=1;strokeColor=none;fillColor=none;" vertex="1" parent="WIyWlLk6GJQsqaUBKTNV-1">
          <mxGeometry x="240" y="585" width="90" height="30" as="geometry" />
        </mxCell>
        <mxCell id="eSpi-IzSvP3MUUH62fqP-78" style="edgeStyle=orthogonalEdgeStyle;rounded=0;orthogonalLoop=1;jettySize=auto;html=1;exitX=0.5;exitY=1;exitDx=0;exitDy=0;" edge="1" parent="WIyWlLk6GJQsqaUBKTNV-1" source="eSpi-IzSvP3MUUH62fqP-77" target="WIyWlLk6GJQsqaUBKTNV-6">
          <mxGeometry relative="1" as="geometry" />
        </mxCell>
        <mxCell id="eSpi-IzSvP3MUUH62fqP-80" style="edgeStyle=orthogonalEdgeStyle;rounded=0;orthogonalLoop=1;jettySize=auto;html=1;exitX=1;exitY=0.5;exitDx=0;exitDy=0;" edge="1" parent="WIyWlLk6GJQsqaUBKTNV-1" source="eSpi-IzSvP3MUUH62fqP-77" target="eSpi-IzSvP3MUUH62fqP-13">
          <mxGeometry relative="1" as="geometry" />
        </mxCell>
        <mxCell id="eSpi-IzSvP3MUUH62fqP-77" value="Users App" style="ellipse;whiteSpace=wrap;html=1;" vertex="1" parent="WIyWlLk6GJQsqaUBKTNV-1">
          <mxGeometry x="120" y="-70" width="120" height="80" as="geometry" />
        </mxCell>
        <mxCell id="eSpi-IzSvP3MUUH62fqP-79" value="Yes&lt;div&gt;&lt;br&gt;&lt;/div&gt;" style="text;html=1;align=center;verticalAlign=middle;resizable=0;points=[];autosize=1;strokeColor=none;fillColor=none;" vertex="1" parent="WIyWlLk6GJQsqaUBKTNV-1">
          <mxGeometry x="40" y="60" width="40" height="40" as="geometry" />
        </mxCell>
        <mxCell id="eSpi-IzSvP3MUUH62fqP-81" value="No&lt;div&gt;&lt;br&gt;&lt;/div&gt;" style="text;html=1;align=center;verticalAlign=middle;resizable=0;points=[];autosize=1;strokeColor=none;fillColor=none;" vertex="1" parent="WIyWlLk6GJQsqaUBKTNV-1">
          <mxGeometry x="390" y="-50" width="40" height="40" as="geometry" />
        </mxCell>
      </root>
    </mxGraphModel>
  </diagram>
</mxfile>
